<?xml version="1.0" standalone="no"?>
<!DOCTYPE svg PUBLIC "-//W3C//DTD SVG 20010904//EN"
 "http://www.w3.org/TR/2001/REC-SVG-20010904/DTD/svg10.dtd">
<svg version="1.0" xmlns="http://www.w3.org/2000/svg"
 width="1000.000000pt" height="1000.000000pt" viewBox="0 0 1000.000000 1000.000000"
 preserveAspectRatio="xMidYMid meet">

<g transform="translate(0.000000,1000.000000) scale(0.100000,-0.100000)"
fill="#000000" stroke="none">
<path d="M4755 9203 c-819 -69 -1598 -435 -2160 -1014 -56 -57 -125 -132 -155
-167 l-55 -63 -54 12 c-348 75 -888 -338 -1307 -998 -514 -810 -707 -1718
-449 -2107 118 -178 338 -227 585 -129 133 53 307 170 458 308 45 42 74 62 76
53 13 -42 13 -63 1 -82 -54 -85 -151 -374 -181 -541 -28 -153 -26 -434 4 -583
58 -289 200 -558 432 -817 36 -40 95 -98 131 -129 l66 -57 7 -87 c3 -48 15
-118 26 -157 11 -38 24 -110 30 -160 46 -404 49 -456 52 -795 3 -413 1 -424
-122 -790 -101 -302 -115 -364 -107 -494 6 -104 39 -316 58 -373 10 -33 11
-33 76 -33 63 0 65 1 59 23 -31 104 -48 189 -66 312 -23 163 -24 208 -10 233
14 24 110 285 153 417 81 247 82 254 82 695 -1 351 -3 413 -23 560 -54 403
-62 457 -72 495 -17 68 -12 179 10 237 12 31 55 98 105 160 122 154 231 322
261 403 15 38 62 144 105 235 44 91 86 191 94 223 19 72 46 127 95 192 21 28
76 122 123 210 46 88 107 203 135 255 28 52 65 131 82 175 17 44 55 123 85
175 29 52 77 142 106 200 43 84 62 111 97 134 39 28 43 29 59 14 24 -25 28
-152 9 -273 -23 -140 -79 -338 -138 -484 -61 -154 -58 -149 -287 -421 -71 -84
-95 -124 -201 -335 -112 -224 -125 -247 -211 -345 -138 -159 -349 -487 -349
-542 0 -35 24 -58 60 -58 34 0 53 23 131 155 29 50 75 124 102 165 51 77 187
243 193 237 6 -6 -26 -188 -62 -347 -20 -91 -32 -166 -28 -183 10 -47 67 -63
99 -27 22 25 75 255 110 480 14 91 30 189 36 218 21 106 171 356 304 508 107
122 165 226 230 414 32 92 80 191 152 309 22 36 25 42 70 141 51 113 227 412
260 441 44 38 65 37 103 -8 41 -51 53 -101 48 -208 -5 -101 -28 -168 -144
-415 -40 -86 -80 -192 -109 -294 -36 -123 -67 -203 -140 -355 -146 -306 -249
-587 -286 -778 -11 -62 -12 -63 -84 -117 -130 -98 -154 -138 -259 -432 -35
-99 -80 -216 -100 -261 -41 -92 -42 -100 -20 -131 20 -29 67 -29 93 -1 25 28
85 173 156 384 32 94 66 188 77 210 31 63 97 124 166 156 41 18 89 53 135 97
40 38 121 109 182 158 119 97 264 233 481 452 112 114 145 142 167 142 48 0
61 -78 31 -194 -20 -79 -47 -123 -135 -221 -39 -44 -106 -125 -149 -180 -43
-55 -115 -140 -160 -190 -100 -109 -235 -273 -278 -336 -17 -25 -38 -74 -47
-110 -32 -122 -95 -266 -161 -365 -35 -53 -67 -106 -69 -118 -3 -11 8 -104 24
-206 59 -360 61 -489 15 -860 -33 -264 -89 -533 -178 -853 -42 -147 -79 -290
-84 -318 l-9 -49 67 0 67 0 12 68 c17 92 72 318 121 492 75 264 115 468 144
735 28 257 29 491 0 631 -6 30 -5 31 82 73 49 23 142 58 209 77 66 20 170 51
230 70 119 37 211 51 235 35 13 -9 10 -15 -17 -38 -41 -37 -109 -123 -168
-215 -98 -151 -275 -508 -291 -586 -4 -19 1 -36 16 -55 32 -41 79 -37 133 11
57 51 74 61 209 121 235 104 411 127 633 81 160 -33 238 -58 231 -76 -3 -8
-13 -51 -23 -97 -25 -115 -25 -552 0 -609 24 -57 79 -65 112 -15 13 20 14 38
5 118 -15 148 -11 411 8 503 16 76 18 79 53 90 20 7 52 24 70 37 31 22 43 24
149 23 87 -1 151 -9 266 -33 234 -48 311 -78 574 -222 130 -71 191 -112 285
-191 132 -111 153 -122 191 -108 l27 10 -7 168 c-10 237 13 542 59 767 39 190
68 290 149 515 101 277 119 324 153 396 l33 71 98 7 c134 9 348 24 527 37 497
37 771 18 1082 -77 284 -86 421 -160 507 -274 115 -153 288 -583 348 -865 l23
-110 3 398 c3 455 9 416 -96 548 -131 165 -254 247 -523 350 -491 188 -754
211 -1579 138 -63 -5 -171 -14 -240 -19 -150 -12 -237 -27 -267 -45 -18 -12
-22 -12 -27 1 -10 27 -7 31 52 64 100 57 363 235 487 332 142 111 376 335 487
468 224 267 379 575 433 860 22 116 25 352 6 458 -7 40 -11 76 -8 79 3 2 47
-2 98 -11 129 -22 320 -21 438 4 253 52 463 224 562 460 58 137 73 226 74 430
0 112 -5 214 -13 260 -80 446 -290 886 -623 1307 -127 160 -428 460 -579 577
-309 239 -610 398 -901 475 -158 42 -268 54 -428 48 -147 -5 -215 -21 -343
-79 l-66 -30 -116 71 c-434 266 -925 431 -1441 486 -126 13 -510 18 -630 8z
m615 -154 c395 -42 783 -155 1135 -331 106 -53 305 -167 305 -174 0 -3 -25
-34 -55 -69 -126 -149 -191 -335 -202 -575 -27 -617 337 -1370 948 -1965 302
-294 609 -502 944 -640 l100 -42 23 -89 c29 -112 39 -290 23 -405 -68 -478
-393 -946 -946 -1364 -101 -76 -314 -217 -390 -259 -27 -16 -76 -44 -107 -63
-32 -18 -140 -74 -240 -122 -685 -331 -1321 -498 -2103 -552 -145 -10 -628 -7
-820 5 -22 2 -53 3 -70 4 -55 4 -60 14 -31 71 l26 51 98 0 c81 0 105 4 147 24
170 79 163 267 -13 330 -28 10 -52 21 -52 25 0 10 59 81 177 212 61 68 146
169 189 224 42 55 102 127 132 161 l56 61 68 -43 c106 -65 367 -144 476 -144
74 0 113 64 70 114 -18 22 -36 29 -92 37 -113 16 -267 58 -341 95 -111 54
-108 49 -82 130 32 101 30 223 -3 283 -32 57 -67 82 -122 88 -62 7 -121 -21
-202 -96 -36 -34 -74 -61 -85 -61 -21 0 -36 36 -47 115 l-6 41 67 11 c87 15
239 88 301 145 76 69 104 114 104 165 0 154 -159 242 -419 231 l-97 -4 62 141
c101 233 109 261 109 402 0 120 -1 122 -37 192 -20 39 -33 71 -29 71 15 0 118
-38 158 -59 23 -11 67 -43 99 -71 31 -27 60 -50 64 -50 4 0 24 -25 45 -56 55
-80 154 -166 245 -213 199 -104 402 -107 600 -10 167 82 306 262 345 445 19
88 19 219 0 309 -48 231 -238 441 -470 521 -109 38 -272 40 -385 5 -159 -48
-280 -137 -354 -259 -85 -142 -124 -292 -112 -425 5 -54 4 -68 -6 -64 -219 97
-374 117 -584 76 -128 -24 -189 -46 -277 -99 -41 -25 -78 -40 -99 -40 -18 0
-46 -7 -63 -16 -20 -10 -31 -12 -33 -4 -25 75 -116 195 -197 260 -123 97 -242
140 -402 143 -96 2 -99 1 -184 -40 -182 -89 -284 -246 -296 -454 -7 -114 15
-213 74 -330 102 -204 331 -359 532 -359 28 0 51 -3 51 -7 0 -5 -21 -44 -46
-88 -25 -44 -68 -125 -96 -180 -28 -55 -71 -127 -96 -160 -49 -65 -95 -159
-107 -215 -3 -19 -40 -105 -80 -190 -41 -85 -85 -185 -98 -222 -35 -96 -95
-197 -203 -339 -52 -68 -109 -143 -126 -166 l-31 -42 -58 46 c-33 25 -86 74
-118 109 -33 35 -64 64 -69 64 -16 0 -127 168 -177 269 -57 115 -108 267 -129
390 -18 109 -21 314 -5 428 26 185 122 481 178 546 15 18 30 40 34 49 3 10 -5
66 -18 125 -13 59 -26 130 -30 156 -3 26 -10 69 -15 95 -49 262 -35 734 30
1072 283 1450 1505 2525 2990 2630 132 10 411 4 550 -11z m33 -2903 c38 -14
83 -35 100 -47 42 -29 87 -71 87 -80 0 -44 -597 -234 -801 -256 l-61 -6 7 34
c15 72 76 180 135 239 65 65 111 92 215 127 94 31 219 27 318 -11z m-2327
-447 c57 -21 175 -96 181 -115 4 -13 -184 -58 -373 -89 -109 -18 -170 -23
-218 -18 -36 3 -66 8 -66 10 0 2 11 25 24 51 40 78 130 156 201 173 66 16 192
10 251 -12z m1983 -81 c62 -148 157 -269 252 -319 37 -20 59 -24 140 -24 89 0
99 2 145 30 28 18 70 58 98 95 29 38 46 55 41 40 -45 -144 -186 -278 -344
-324 -225 -66 -499 63 -609 287 -31 61 -70 203 -59 213 2 3 44 9 93 15 49 5
114 16 144 23 30 8 60 14 66 15 6 1 21 -23 33 -51z m-1062 -175 c-34 -47 -109
-179 -182 -321 -21 -40 -38 -71 -39 -70 -1 2 1 64 5 138 5 98 3 145 -6 173
-14 42 -16 40 70 80 36 17 138 44 173 46 8 1 0 -18 -21 -46z m-1285 -103 c55
0 58 -1 64 -27 27 -122 105 -216 235 -285 37 -19 59 -23 137 -23 50 0 92 0 92
-1 0 -1 -16 -35 -35 -77 -32 -70 -38 -77 -71 -83 -77 -14 -178 1 -259 39 -166
79 -295 273 -295 443 l0 42 38 -14 c20 -7 63 -13 94 -14z m1458 -1287 c6 -32
20 -93 31 -135 16 -63 17 -81 7 -95 -36 -52 -453 -432 -462 -422 -5 7 60 209
104 325 23 60 72 171 108 247 l65 137 68 0 68 0 11 -57z m2875 -1224 c-62 -63
-283 -252 -470 -401 -157 -125 -568 -428 -580 -428 -3 0 9 28 26 63 62 122
139 301 139 322 0 31 -23 47 -62 43 -32 -3 -35 -7 -140 -218 -59 -118 -107
-223 -108 -232 0 -9 10 -24 22 -32 14 -10 18 -19 13 -24 -19 -17 -421 -291
-432 -294 -6 -2 -62 67 -124 152 -149 203 -221 277 -347 361 -57 37 -109 70
-115 72 -7 2 -2 12 13 25 18 14 46 22 100 27 267 23 551 68 855 136 318 71
846 266 1160 427 44 23 82 41 85 42 2 0 -14 -18 -35 -41z m-2945 -57 c65 -32
73 -61 27 -96 -34 -25 -167 -37 -167 -15 0 19 26 114 34 128 11 18 47 12 106
-17z m3075 -72 c4 -6 -16 -63 -44 -128 -62 -146 -112 -298 -156 -472 -78 -315
-98 -484 -88 -747 3 -90 4 -163 0 -163 -3 0 -81 43 -174 96 -392 224 -524 273
-871 322 l-123 18 138 94 c444 304 904 655 1148 879 114 104 153 128 170 101z
m-3275 -420 c52 -11 107 -20 122 -20 67 0 56 -13 -49 -62 -105 -47 -189 -75
-198 -66 -3 3 -10 31 -16 63 -8 45 -8 64 2 82 15 28 19 28 139 3z m947 -189
c122 -103 241 -231 325 -349 48 -67 84 -122 80 -122 -4 0 -59 11 -122 25 -264
57 -464 38 -712 -70 -43 -18 -78 -32 -78 -29 0 2 29 62 64 132 86 170 168 292
257 379 64 62 85 76 121 82 4 0 33 -21 65 -48z"/>
<path d="M5800 7150 c-331 -54 -734 -186 -1044 -342 -241 -121 -313 -193 -258
-256 32 -38 55 -36 108 8 184 153 878 400 1264 450 120 16 127 18 150 42 25
27 26 59 2 88 -25 30 -82 33 -222 10z"/>
<path d="M2525 6509 c-38 -5 -128 -25 -200 -44 -71 -19 -149 -39 -173 -45 -35
-9 -46 -18 -57 -43 -10 -23 -10 -37 -3 -52 24 -46 53 -46 240 0 309 75 502 73
763 -8 61 -19 140 -40 177 -47 59 -12 69 -11 91 3 13 9 28 28 31 43 11 44 -20
76 -95 97 -35 10 -116 34 -179 52 -63 19 -146 39 -185 45 -83 12 -312 11 -410
-1z"/>
<path d="M5107 1405 c-34 -34 -42 -71 -22 -101 21 -33 58 -31 106 8 28 22 39
39 39 58 0 59 -76 81 -123 35z"/>
<path d="M5050 1030 c-28 -28 -26 -75 5 -105 39 -40 83 -29 105 24 16 41 6 79
-26 91 -38 15 -62 12 -84 -10z"/>
<path d="M9845 599 c-149 -10 -289 -40 -480 -103 -335 -111 -656 -255 -831
-372 l-92 -61 -88 135 c-108 167 -170 249 -196 263 -45 24 -95 -20 -77 -68 5
-13 26 -47 47 -75 21 -29 75 -113 121 -185 l83 -133 114 0 114 0 57 37 c177
113 740 338 996 397 82 19 282 46 343 46 l44 0 0 65 c0 61 -1 65 -22 64 -13
-1 -72 -5 -133 -10z"/>
</g>
</svg>
